# xmcd CD database file
#
# Track frame offsets:
#	150
#	17216
#	38442
#
# Disc length: 833 seconds
#
# Revision: 0
# Processed by: cddbd v1.5PL3 Copyright (c) Steve Scherf et al.
# Submitted via: CDex 1.51
#
DISCID=17033f03
DTITLE=POR - もっともっと
DYEAR=2003
DGENRE=Vocal
TTITLE0=fine*
TTITLE1=もっともっと
TTITLE2=迷い子
EXTD=YEAR: 2003
EXTT0=
EXTT1=
EXTT2=
PLAYORDER=
